<svg xmlns="http://www.w3.org/2000/svg" xmlns:xlink="http://www.w3.org/1999/xlink" viewBox="0 0 418.97 716"><defs><style>.cls-1{fill:url(#New_Gradient_Swatch_1);}</style><linearGradient id="New_Gradient_Swatch_1" y1="358" x2="418.97" y2="358" gradientUnits="userSpaceOnUse"><stop offset="0.08" stop-color="#9945ff"/><stop offset="0.3" stop-color="#8752f3"/><stop offset="0.5" stop-color="#5497d5"/><stop offset="0.6" stop-color="#43b4ca"/><stop offset="0.72" stop-color="#28e0b9"/><stop offset="0.97" stop-color="#19fb9b"/></linearGradient></defs><g id="Layer_2" data-name="Layer 2"><g id="Layer_1-2" data-name="Layer 1"><path class="cls-1" d="M0,206.5c1.5,88.67,45,148.78,103.45,180.34V611.26A104.74,104.74,0,0,0,208.19,716h0A104.74,104.74,0,0,0,312.93,611.26v-223c59.74-31.18,104.5-91.74,106-181.71C414.31-68.81,4.7-68.86,0,206.5Zm314.3,52.87a3.8,3.8,0,0,1-1,2l-34.2,35.73a7.8,7.8,0,0,1-2.64,1.82,8.2,8.2,0,0,1-3.17.64H111.17a4,4,0,0,1-2.18-.64,3.92,3.92,0,0,1-1.46-1.69,3.79,3.79,0,0,1,.74-4.18l34.22-35.73a8,8,0,0,1,2.63-1.81,8.38,8.38,0,0,1,3.16-.65H310.39a4,4,0,0,1,2.17.64,3.88,3.88,0,0,1,1.47,1.69A3.78,3.78,0,0,1,314.3,259.37ZM314,229.31a3.88,3.88,0,0,1-1.47,1.69,4,4,0,0,1-2.17.64H148.28a8.08,8.08,0,0,1-5.79-2.46l-34.22-35.73a3.79,3.79,0,0,1-.74-4.18,3.92,3.92,0,0,1,1.46-1.69,4,4,0,0,1,2.18-.64H273.28a8.2,8.2,0,0,1,3.17.64,8.1,8.1,0,0,1,2.64,1.82l34.2,35.73a3.79,3.79,0,0,1,.74,4.18Zm.27-105.74a3.8,3.8,0,0,1-1,2l-34.2,35.73a8,8,0,0,1-2.64,1.82,8.2,8.2,0,0,1-3.17.64H111.17a4,4,0,0,1-2.17-.64,3.8,3.8,0,0,1-1.46-1.69,3.7,3.7,0,0,1-.27-2.2,3.8,3.8,0,0,1,1-2l34.21-35.73a8,8,0,0,1,2.63-1.81,8.38,8.38,0,0,1,3.16-.65H310.39a4,4,0,0,1,2.17.64,3.88,3.88,0,0,1,1.47,1.69A3.78,3.78,0,0,1,314.3,123.57Z"/></g></g></svg>